<?xml version="1.0" encoding="utf-8"?>
<!-- Generator: Adobe Illustrator 13.0.0, SVG Export Plug-In . SVG Version: 6.00 Build 14948)  -->
<!DOCTYPE svg PUBLIC "-//W3C//DTD SVG 1.1//EN" "http://www.w3.org/Graphics/SVG/1.1/DTD/svg11.dtd">
<svg version="1.1" id="Calque_1" xmlns="http://www.w3.org/2000/svg" xmlns:xlink="http://www.w3.org/1999/xlink" x="0px" y="0px"
	 width="156.831px" height="31.233px" viewBox="0 0 156.831 31.233" enable-background="new 0 0 156.831 31.233"
	 xml:space="preserve">
<g>
	<path fill="#DFDB00" d="M0,21.356c20.278,7.271,42.261,7.21,63.383,7.582c21.552-0.06,43.533-0.552,64.641-5.353
		c7.323-1.744,22.403-3.941,27.992-9.129c-14.68-9.011-34.082-10.681-50.896-12.358C81.836-0.424,58.126-1.22,35.301,5.74
		c-13.782,3.918-23.683,8.687-35.3,16.047"/>
	<g>
		<path fill="none" d="M0,21.356c20.278,7.271,42.261,7.21,63.383,7.582c21.552-0.06,43.533-0.552,64.641-5.353
			c7.323-1.744,22.403-3.941,27.992-9.129c-14.68-9.011-34.082-10.681-50.896-12.358C81.836-0.424,58.126-1.22,35.301,5.74
			c-13.782,3.918-23.683,8.687-35.3,16.047"/>
		<g>
			<path d="M0.948,20.974c-1.144-0.273,0.501,0.478-0.775-0.101C0.372,20.788,0.624,20.755,0.948,20.974z"/>
			<path d="M3.564,20.117c2.776-2.753,7.573-4.419,11.06-6.708c0.422-0.249,0.106,0.504,1.039-0.082
				c3.321-2.39,9.412-4.443,14.234-5.389l-0.235,0.231c0.903-0.222,1.858-0.973,2.822-1.203c0.034,0.088-0.263,0.221-0.007,0.278
				c0.154-0.344,1.669-0.644,2.011-0.967c0.404-0.007,0.431,0.22,0.946,0.194l0.464-0.459c1.307-1.136,3.705-0.918,5.679-1.845
				c-0.083,0.098-0.275,0.209-0.093,0.237c3.197-1.442,7.53-1.9,11.289-2.822c-0.136,0.13-0.246,0.352-0.004,0.453
				c0.14-0.358,1.313-0.581,2.334-0.768c0.507,0.294,1.727-0.522,2.96-0.471l-0.096,0.088c0.855-0.466,1.345,0.056,2.027-0.465
				l0.593,0.207c0.347-0.553,1.315,0.135,2.035-0.152L62.59,0.375c0.69-0.159,1.072,0.067,1.714-0.052l0.065,0.051
				C65.88,0.159,66.778,0.383,66.721,0c0.548,0.277-1.465,0.225-0.604,0.625c4.959-0.762,10.138-0.609,15.16-0.518
				c0.566,0.174,0.928,0.235,1.051,0.385c0.504-0.061,1.892-0.003,2.355-0.183C84.514,0.311,85,0.517,85.264,0.545
				c0.905,0.179,1.019-0.385,2.014-0.177c-0.405,0.087-0.548,0.207-0.42,0.354c0.871-0.287,2.01-0.126,3.026-0.162
				c-0.161,0.053-0.406,0.075-0.376,0.198c1.127-0.261,2.009,0.215,2.991,0.068l-0.376,0.195c1.538,0.379,0.493-0.43,1.829-0.176
				c-0.329,0.047-0.222,0.142-0.287,0.228c1.288-0.319,3.313-0.039,4.574-0.035c-0.078,0.023-0.062,0.085-0.062,0.085
				c1.368,0.083,2.782,0.347,4.299,0.318c0.536,0.151-0.233,0.521,1.217,0.581c-0.004-0.449,2.466,0.058,1.667-0.527
				c1.224,0.197,3.157,0.558,3.993,0.49c-0.571,0.112,0.544,0.601-0.483,0.536l0.747,0.347c-0.134,0.169-0.79-0.141-0.567,0.111
				c0.514,0.033,2.026,0.007,2.477,0.126c0.977-0.167,1.904-0.577,3.449-0.462c-0.743,0.092,0.356,0.534-0.143,0.556l2.243-0.61
				c0.514,0.036,0.069,0.36,0.824,0.327c-0.023-0.12,0.308-0.16,0.544-0.223c0.187,0.079,2.144,0.18,2.308,0.645
				c0.205,0.199-0.844-0.023-0.298,0.209c0.941,0.124,1.004-0.019,1.949,0.101l0.01,0.061c0.612,0.149,1.862,0.064,1.221-0.266
				c-0.432-0.073,0.126,0.282-0.498,0.069c0.474-0.182,1.588-0.139,2.529,0.041c-0.333,0.012-0.312,0.134-0.459,0.236
				c1.316-0.121,2.679,0.006,4.122,0.112c0.059-0.202-0.597,0.282-0.785,0.136c1.759,0.58,3.825,0.257,5.229,1.049
				c-0.252-0.021-0.067-0.32-0.063-0.258c0.863,0.225,0.754,0.51,1.343,0.531c0.016,0.187,0.722,0.107,1.317,0.189
				c0.332-0.055,0.13,0.119-0.379,0.021c0.854-0.025,4.146,0.617,5.907,1.466c-0.003-0.123,1.265-0.064,1.688,0.079l-0.253,0.209
				c0.333,0.28,1.434,0.398,1.419,0.669c1.02-0.064-3.571-0.802-2.264-0.678c0.245,0.313,1.844,0.105,1.462,0.379
				c0.862,0.213,1.752,0.323,2.461,0.86c-0.214-0.134-0.804,0.086-0.132,0.337c1.191,0.426,0.381,0.011,1.369,0.312l0.642,0.136
				c0.142-0.231,1.04,0.459,0.718,0.007c0.057,0.26,1.773,0.57,1.469,0.924l-0.309,0.252c0.523,0.162,0.965,0.045,1.417,0.104
				c0.051,0.063,0.148,0.194,0.099,0.232c0.314-0.437,1.141,0.658,1.91,0.602c0.936,0.709,2.597,1.408,2.905,1.951l0.081,0.026
				l0.041,0.013l0.01,0.003l0.001,0c0.369,3.719,0.102,1.031,0.185,1.861l-0.001,0.001l-0.002,0.002l-0.004,0.004l-0.016,0.016
				l-0.119,0.126l-0.24,0.25l-0.501,0.491c-0.349,0.321-0.74,0.626-1.215,0.895c0.15-0.167,0.382-0.353,0.365-0.484
				c-0.642,0.246-0.676,0.519-1.168,0.87c0.079-0.127-1.322,0.301-2.041,0.441c-0.731,0.534-0.341,0.664-0.35,0.864
				c-0.933-0.059-2.231,1.221-3.352,1.155c0.268-0.175,1.126-0.686,0.391-0.559c-0.929-0.233-1.394,0.959-2.722,1.051l0.434,0.331
				c-0.633-0.098-1.764,0.776-1.761,0.311c-0.375,0.271-1.506,0.283-1.257,0.657c-2.142,0.172-4.958,1.445-6.387,0.951
				c-0.279,0.134-1.03,0.223-0.833,0.404c0.54,0.125,0.647-0.315,0.865-0.197c-0.262,0.07-0.294,0.197-0.31,0.261
				c-0.66,0.043-1.168,0.124-0.64-0.354c-1.474,0.053-1.314,1.022-3.152,1.238c0.045-0.189-0.105-0.226-0.627-0.088l-0.936,0.505
				c-1.163,0.187-0.739-0.247-0.831-0.534c-0.606,0.188-1.364,0.341-1.594,0.619l-0.846-0.2c0.616,0.151-0.476,0.28-0.755,0.411
				l0.278-0.13c-0.142-0.102-0.851,0.122-1.211,0.233c0.128,0.163,0.885,0.086,1.301,0.058c-0.292,0.191-0.799,0.264-1.193,0.501
				c0.08-0.315-1.068,0.003-1.574,0.074c-0.585,0.053-0.595,0.388-0.764,0.412c-0.045-0.146-0.941,0.164-0.536-0.136
				c0.186-0.087,0.476,0.055,0.773-0.143c-0.4-0.034-0.408-0.303-1.154,0.045c-0.562,0.261,0.262,0.538-0.894,0.581
				c0.28-0.129,0.312-0.255,0.521-0.405l-1.078,0.062l0.003,0.271c-0.154-0.037-0.06-0.08-0.131-0.101
				c-0.262,0.34-1.586,0.412-1.774,0.743c-0.529,0.111-1.156-0.007-1.67,0.042l0.094-0.04c-0.648-0.057-1.458,0.173-1.953,0.433
				l0.018-0.062c-0.343,0.032-1.14,0.198-1.545,0.42c-0.888-0.066-0.432-0.954-1.333-0.474c-0.867,0.145-1.297,0.696-0.924,0.812
				c-1.594,0.02-3.333,0.648-4.84,0.408c-0.215,0.133-0.063,0.185-0.524,0.301c-2.319,0.194-4.86,0.826-6.75,0.444
				c0.661-0.166,0.022-0.27-0.004-0.419c-0.534,0.283-0.686-0.194-0.851,0.232c0.074,0.236,0.029,0.357,0.688,0.401
				c-1.372,0.243-3.478,0.417-4.259,0.253c0.391,0.081,0.098,0.183-0.198,0.269c0.073-0.39-0.95-0.392-1.713-0.214l-0.094,0.24
				l-0.518-0.213c-0.292,0.091-0.298,0.509-1.077,0.327c-0.046-0.089-0.096-0.179-0.24-0.238c-0.787,0.236-1.898,0.623-2.775,0.471
				l-0.725-0.303c-0.368,0.058-0.984,0.298-0.327,0.361c-1.489-0.139-2.441-0.146-2.921-0.423c-2.52,0.806-6.226,0.971-9.187,0.946
				l0.086-0.178c-0.799-0.151-0.409,0.315-0.966,0.202c0.254-0.172-0.612-0.354,0.009-0.57c-1.14-0.166-1.461,0.328-2.2,0.42
				c-0.11,0.234,0.594-0.157,0.454,0.139c-0.126,0.084-1.577-0.154-1.75,0.198c-0.288-0.132-0.067-0.394,0.085-0.537l-0.693,0.178
				c-0.854-0.396,1.927-0.755,1.029-1.246l-0.638,0.064c-0.615-0.354,1.686-0.441,0.08-0.538c-0.694,0.18-1.284,0.688-0.663,0.839
				c-1.449,0.105-0.663,0.835-2.224,0.817c-0.427-0.203,1.249-0.057,0.946-0.342c-0.737-0.277-1.472,0.166-2.127,0.072
				c0.727,0.127,0.116,0.483-0.354,0.551c-0.794-0.161,0.514-0.334-0.611-0.363c-0.183,0.203-1.217,0.36-0.322,0.496
				c-0.405,0.459-1.17-0.12-1.781,0.237c-0.367-0.319,1.154-0.749-0.082-0.903c0.198,0.31-1.521,0.432-0.867,0.886
				c-0.575-0.09-0.554-0.339-0.22-0.521c-0.686-0.203-1.684,0.537-1.9-0.083l-0.243,0.313c-0.215-0.107-0.522-0.19-0.873-0.366
				c-0.607-0.016-1.967,0.396-1.904-0.083c-0.195,0.047-1.584,0.002-1.054,0.341c0.86,0.216,0.998-0.224,1.471,0.231
				c-0.604-0.375-1.247,0.027-1.747,0.141l-0.079-0.187c-0.298,0.067-0.982,0.015-1.171,0.212c0.23-0.102,0.113-0.23-0.122-0.278
				l-0.317,0.274c-1.213,0.114-0.277-0.5-1.456-0.445l0.899-0.197c-0.198,0.042-0.593-0.23-1.159-0.157
				c-0.224,0.253-0.641,0.551-0.834,0.746c-0.667,0.096-0.292-0.296-0.952-0.048l0.863-0.289c0.131-0.082-0.567-0.438-1.454-0.451
				c-0.568,0.075-1.457,0.426-0.567,0.587c-0.445-0.005-1.064-0.177-0.707-0.356c-1.01,0.064,0.126,0.279-0.748,0.419
				c-0.352-0.181-1.454-0.445-2.114-0.716l0.919-0.406l-0.602-0.019c0.79-0.325-0.389-0.27,0.063-0.623
				c-0.41-0.067-0.913,0.031-1.314,0.111c1.188,0.63-1.377,0.738-1.046,1.283c-1.664,0.078-0.984-1.332-2.744-0.571
				c0.277,0.149-0.554,0.519,0.496,0.408c-1.026-0.099-0.724,0.503-1.929,0.235c0.909-0.183-0.939-0.577,0.373-0.839
				c-0.094,0.171,0.719,0.162,0.919,0.122c-0.414-0.222,0.111-0.53-0.939-0.573c-0.644,0.024-1.524-0.001-1.41,0.281
				c0.01,0.304,0.981,0.007,0.555,0.295c-1.286,0.06-1.475-0.422-2.035,0.078c0.812,0.017,0.998,0.335,0.972,0.542l-0.949,0.066
				l0.194-0.189c-1.504-0.251-0.468,0.334-1.932,0.177l-0.662-0.446c0.371-0.317,2.122,0.302,1.894-0.274
				c-0.949-0.088-1.283,0.173-2.169-0.034l0.677-0.064c-0.341-0.043-0.627-0.805-2.011-0.468c-0.711,0.121-0.2,0.186-0.232,0.393
				c-1.532-0.042-2.007,0.139-2.994,0.103c0.238-0.377-1.735-0.229-0.611-0.524c0.476,0.319,2.69,0.417,3.259,0.077
				c-0.519-0.521,1.193,0.151,1.553-0.316c-1.219-0.096-1.124-0.566-1.296-0.89c-0.336-0.046-0.673,0.063-0.879,0.097
				c-0.167,0.282,0.276,0.31,0.278,0.613c-1.355-0.169-2.679-0.1-3.457,0.084c-0.441-0.195-0.269-0.472,0.271-0.44
				c-1.624-0.092-3.348-0.322-4.872-0.58c0.936,0.584-1.726-0.078-1.098,0.391c0.81,0.199,1.479,0.617,0.998,0.779
				c-0.513-0.087,0.042-0.206-0.161-0.332c-0.691,0.187-0.968-0.529-1.667-0.191c1.502,0.011,0.363-0.547,0.684-0.889
				c-1.091,0.09,0.081-0.26-0.971-0.378c-1.078,0.036-2.397-0.014-3.583-0.126c-1.41-0.609-3.733-0.577-5.04-0.859
				c-0.643-0.343-0.098-0.652-0.816-0.894c-0.865-0.191,0.545,0.595-0.693,0.111l0.142-0.054c-0.411,0.005-2.276-0.821-2.796-0.315
				l0.501-0.355c-0.229-0.096-0.473-0.046-0.682-0.042c0.025-0.149-0.219-0.344,0.19-0.351c-0.71-0.489-1.66-0.332-2.52-0.517
				l0.481,0.389c-1.529-0.104-2.395-0.764-3.819-1.076l0.119-0.241l-0.874-0.106c0.279-0.185-0.427-0.578-0.928-0.508l2.33,0.045
				c0.548,0.335-0.74,0.105-0.444,0.473c0.251,0.319,1.559,0.65,1.833,0.468c-0.482-0.181-0.521-0.132-0.929-0.16
				c-0.058-0.405,0.682-0.159,1.115-0.283c-0.26-0.065-0.592-0.288-0.68-0.191c0.555-0.025,1.058,0.133,1.907,0.345
				c-0.615,0.009,0.255,0.296,0.009,0.347c0.152-0.299,0.991-0.209,2.024,0.122c0.664,0.542,2.035,0.222,3.229,0.604
				c-0.565,0.21-1.258,0.32-2.035,0.279c0.734,0.339,0.859,0.189,1.596,0.53c0.427-0.154,0.772-0.462,1.801-0.378l0.006,0.251
				c0.931,0.094,1.001-0.272,2.156-0.014c1.98,0.444,4.043,0.782,5.567,1.064l0.023,0.25c0.917-0.336,2.879,0.164,4.06,0.075
				c1.94,0.443,4.282,0.255,5.253,0.753c3.504,0.025,6.544,0.159,10.158,0.354l-0.625,0.329c0.661-0.233,0.413,0.221,1.052,0.194
				c-0.719-0.312,0.898-0.331,1.354-0.529c1.601,0.335,3.677,0.14,5.114-0.09l0.049,0.245c1.457-0.424,3.17,0.017,4.97,0.133
				c0.204,0.105,0.525,0.341,1.062,0.327c0.984-0.371,1.496-0.339,2.935-0.56c1.048,0.018,2.747,0.144,3.809,0.315
				c3.891-0.509,7.948-0.203,12.021-0.591l0.299,0.28c3.954-0.649,8.831-0.243,12.196-0.681l-0.307,0.499
				c1.066,0.12,2.409-0.213,2.123-0.552c1.067,0.092,2.63-0.381,3.324-0.018c1.087,0.031,1.312-0.297,2.208-0.413
				c2.178,0.081,2.977-0.039,5.005-0.298l-0.507,0.01c-0.215,0.127-0.22,0.335,0.29,0.325c0.75-0.199,2.808-0.1,2.001-0.62
				c2.208,0.188,5.033-0.716,7.182-0.534c-0.196-0.138,0.332-0.228,0.541-0.362c1.893-0.23,3.937-0.109,5.396-0.643
				c0.311,0.032-0.439,0.342,0.332,0.24c0.445-0.132-0.022-0.208,0.526-0.383c3.005-0.754,6.232-0.64,8.962-1.325
				c4.781-1.267,10.105-2.285,14.721-3.325l-0.027,0.127c1.44-0.813,3.763-0.413,4.802-1.416c0.386,0.004,1.379-0.345,1.177-0.052
				c1.136-0.605,3.451-0.749,4.979-1.763c-0.158,0.046-0.238,0.1-0.398,0.211c1.786-0.384,3.064-1.393,4.663-2.127
				c-0.115,0.145-0.355,0.368-0.338,0.5c0.688-0.23,1.004-1.341,1.66-1.113c0.318-0.232,0.04-0.374-0.141-0.227l0.306-0.191
				l0.153-0.097l0.009-0.006l0.005-0.003c0.121,1.213-0.267-2.717,0.271,2.719l-0.003-0.001l-0.021-0.013l-0.043-0.025l-0.086-0.05
				l-0.694-0.395l-1.42-0.77l-2.923-1.48c-2.044-0.832-4.187-1.494-6.233-2.274c-2.915-1.263,0.121-0.964-2.41-1.299
				c-0.165-0.164-0.207,0.163-0.204,0.041c-0.973-0.13-1.27-1.046-2.001-0.959c0.171,0.416-0.483,0.056-0.559,0.253
				c-1.794-0.801-2.143-1.087-3.7-1.21l0.155-0.151c-1.887,0.114-3.854-0.691-5.485-0.323c-9.819-1.709-19.5-2.175-29.311-3.095
				C90.545,3.165,81.091,2.77,71.326,2.729c-2.304-0.472-2.476-0.359-4.978-0.049c0.098-0.083,0.254-0.11,0.082-0.172
				c-0.103,0.399-1.767,0.139-1.981,0.525c-3.62,0.037-6.881,0.717-10.563,1.092c0.575-0.109,0.824-0.461,0.134-0.355l-0.687,0.333
				l-0.135-0.097c-0.468,0.104-0.941,0.42-0.442,0.446c-9.033,1.782-18.12,3.475-26.703,6.612c-2.077,0.614-4.89,1.873-6.987,2.924
				c-6.554,2.346-12.312,5.108-18.157,9.233C0.91,23.223,1.159,21.875,3.564,20.117z"/>
			<path d="M2.304,21.355c0.177,0.26,0.928,0.609,0.221,0.662C2.504,21.818,2.168,21.496,2.304,21.355z"/>
			<path d="M23.336,28.191c0.037-0.055,0.304,0.114,0.37,0.153c-0.274-0.017-0.552,0.125-0.753-0.018
				C23.23,28.358,23.201,28.259,23.336,28.191z"/>
			<path d="M28.96,28.931c-0.103,0.165-1.325,0.17-2.041,0.112L28.96,28.931z"/>
			<path d="M34.166,30.11c0.444,0.178,0.313,0.251-0.301,0.204C33.828,30.217,34.034,30.186,34.166,30.11z"/>
			<path d="M34.57,29.739c0.438,0.026,0.648,0.144,0.854,0.259C35.419,29.847,34.402,30.021,34.57,29.739z"/>
			<path d="M45.988,30.849c0.275-0.002,0.875-0.124,1.125,0.081C46.83,30.783,45.766,31.097,45.988,30.849z"/>
			<path d="M51.303,30.731c0.171,0.016,0.241,0.049,0.44,0.005c0.313,0.087-0.022,0.207-0.288,0.217L51.303,30.731z"/>
			<polygon points="147.151,20.379 146.62,20.631 146.65,20.442 			"/>
			<path d="M126.254,3.305c-0.583,0.009-0.368-0.232-0.458-0.274C126.312,3.103,125.572,3.211,126.254,3.305z"/>
			<polygon points="103.502,1.502 103.676,1.515 103.581,1.867 			"/>
		</g>
	</g>
</g>
</svg>
